<svg width="88" height="28" viewBox="0 0 88 28" fill="none" xmlns="http://www.w3.org/2000/svg">
<mask id="path-1-outside-1_0_171" maskUnits="userSpaceOnUse" x="46" y="8" width="42" height="13" fill="black">
<rect fill="white" x="46" y="8" width="42" height="13"/>
<path d="M51.438 20C50.723 20 50.0716 19.9074 49.4839 19.7221C48.8962 19.527 48.4016 19.2735 48 18.9614L48.7052 17.7912C49.0579 18.0838 49.4546 18.3227 49.8953 18.508C50.3361 18.6933 50.8503 18.7859 51.438 18.7859C52.1433 18.7859 52.7016 18.6396 53.113 18.3471C53.5244 18.0545 53.7301 17.6596 53.7301 17.1622C53.7301 16.8794 53.6713 16.6308 53.5538 16.4162C53.4362 16.1919 53.206 15.9774 52.8632 15.7726C52.5302 15.5581 52.0355 15.3289 51.3793 15.0851C50.674 14.8121 50.1108 14.539 49.6896 14.266C49.2685 13.9832 48.9648 13.6662 48.7787 13.3152C48.6024 12.9543 48.5142 12.5301 48.5142 12.0426C48.5142 11.555 48.6465 11.1161 48.9109 10.7261C49.1852 10.3262 49.5819 10.0093 50.101 9.77527C50.63 9.53147 51.2666 9.40957 52.011 9.40957C52.6183 9.40957 53.162 9.47296 53.6419 9.59973C54.1317 9.71675 54.6067 9.88741 55.0671 10.1117L54.5528 11.2965C54.2198 11.1015 53.828 10.9406 53.3775 10.8138C52.9367 10.6773 52.4714 10.609 51.9817 10.609C51.3352 10.609 50.8259 10.7358 50.4536 10.9894C50.0814 11.2429 49.8953 11.5696 49.8953 11.9694C49.8953 12.223 49.9492 12.4473 50.0569 12.6423C50.1647 12.8373 50.3753 13.0275 50.6887 13.2128C51.012 13.398 51.4919 13.6077 52.1286 13.8418C52.8926 14.1246 53.495 14.422 53.9358 14.734C54.3863 15.0461 54.7047 15.3874 54.8908 15.758C55.0769 16.1188 55.1699 16.5332 55.1699 17.0013C55.1699 17.6352 55.0083 18.1764 54.6851 18.625C54.3716 19.0736 53.9309 19.4149 53.3628 19.6489C52.8044 19.883 52.1629 20 51.438 20Z"/>
<path d="M60.009 20C59.3724 20 58.7945 19.8391 58.2753 19.5173C57.7562 19.1955 57.3399 18.742 57.0265 18.1569C56.7228 17.5621 56.571 16.8648 56.571 16.0652C56.571 15.3045 56.7228 14.6219 57.0265 14.0173C57.3399 13.4127 57.766 12.9348 58.3047 12.5838C58.8532 12.223 59.4801 12.0426 60.1854 12.0426C60.6261 12.0426 61.0228 12.1206 61.3754 12.2766C61.7379 12.4229 62.0513 12.6082 62.3158 12.8324V12.2181H63.5205V17.9814C63.5205 18.352 63.6087 18.5957 63.785 18.7128C63.9711 18.82 64.1719 18.8737 64.3874 18.8737L64.1082 19.8976C63.1679 19.8976 62.5998 19.5173 62.4039 18.7566C62.1786 19.0687 61.8701 19.3564 61.4783 19.6197C61.0963 19.8732 60.6065 20 60.009 20ZM60.3029 18.8298C60.6751 18.8298 61.0277 18.742 61.3608 18.5665C61.6938 18.3812 61.9729 18.152 62.1982 17.879V13.7979C61.9338 13.6126 61.6399 13.4663 61.3167 13.359C61.0032 13.242 60.6702 13.1835 60.3176 13.1835C59.8474 13.1835 59.4311 13.3054 59.0687 13.5492C58.7161 13.7832 58.4369 14.1148 58.2313 14.5439C58.0256 14.9632 57.9227 15.4557 57.9227 16.0213C57.9227 16.5674 58.0256 17.055 58.2313 17.484C58.4369 17.9034 58.721 18.2349 59.0834 18.4787C59.4458 18.7128 59.8523 18.8298 60.3029 18.8298Z"/>
<path d="M68.4747 20C68.0241 20 67.6176 19.9171 67.2552 19.7513C66.8928 19.5758 66.6038 19.2979 66.3883 18.9176C66.1826 18.5372 66.0798 18.0448 66.0798 17.4402V9H67.4021V17.3085C67.4021 17.8351 67.5099 18.2252 67.7254 18.4787C67.9506 18.7323 68.2592 18.859 68.651 18.859C68.8371 18.859 69.0183 18.8395 69.1946 18.8005C69.3807 18.7518 69.5374 18.6981 69.6648 18.6396L69.988 19.7074C69.8117 19.7855 69.5913 19.8537 69.3268 19.9122C69.0722 19.9707 68.7881 20 68.4747 20Z"/>
<path d="M74.2349 20C73.5101 20 72.8587 19.8342 72.2808 19.5027C71.7029 19.1613 71.2475 18.6933 70.9144 18.0984C70.5912 17.4938 70.4296 16.8014 70.4296 16.0213C70.4296 15.2021 70.5961 14.4951 70.9291 13.9003C71.2621 13.3054 71.7176 12.8471 72.2955 12.5253C72.8734 12.2035 73.5199 12.0426 74.2349 12.0426C74.95 12.0426 75.5915 12.2035 76.1596 12.5253C76.7375 12.8471 77.193 13.3054 77.526 13.9003C77.8689 14.4854 78.0403 15.1826 78.0403 15.992C78.0403 16.8014 77.8738 17.5084 77.5407 18.113C77.2077 18.7079 76.7522 19.1711 76.1743 19.5027C75.6062 19.8342 74.9598 20 74.2349 20ZM74.2349 18.8298C75.0087 18.8298 75.6111 18.5714 76.0421 18.0545C76.4731 17.5279 76.6886 16.8502 76.6886 16.0213C76.6886 15.5142 76.5808 15.051 76.3653 14.6316C76.1498 14.2026 75.856 13.8613 75.4838 13.6077C75.1214 13.3444 74.7051 13.2128 74.2349 13.2128C73.4611 13.2128 72.8587 13.4663 72.4278 13.9734C71.9968 14.4805 71.7813 15.1534 71.7813 15.992C71.7813 16.4991 71.889 16.9721 72.1045 17.4109C72.32 17.84 72.609 18.1862 72.9714 18.4495C73.3436 18.703 73.7648 18.8298 74.2349 18.8298Z"/>
<path d="M80.5794 19.8245V12.2181H81.8576V13.4907C82.1319 13.0811 82.4796 12.7398 82.9008 12.4668C83.3318 12.184 83.8411 12.0426 84.4288 12.0426C85.2908 12.0426 85.9323 12.301 86.3535 12.8178C86.7845 13.3347 87 14.0173 87 14.8657V19.8245H85.6777V15.012C85.6777 14.4659 85.5454 14.027 85.281 13.6955C85.0263 13.3639 84.6688 13.1981 84.2084 13.1981C83.7579 13.1981 83.3318 13.359 82.9302 13.6809C82.5286 13.9929 82.1858 14.3635 81.9017 14.7926V19.8245H80.5794Z"/>
</mask>
<path d="M51.438 20C50.723 20 50.0716 19.9074 49.4839 19.7221C48.8962 19.527 48.4016 19.2735 48 18.9614L48.7052 17.7912C49.0579 18.0838 49.4546 18.3227 49.8953 18.508C50.3361 18.6933 50.8503 18.7859 51.438 18.7859C52.1433 18.7859 52.7016 18.6396 53.113 18.3471C53.5244 18.0545 53.7301 17.6596 53.7301 17.1622C53.7301 16.8794 53.6713 16.6308 53.5538 16.4162C53.4362 16.1919 53.206 15.9774 52.8632 15.7726C52.5302 15.5581 52.0355 15.3289 51.3793 15.0851C50.674 14.8121 50.1108 14.539 49.6896 14.266C49.2685 13.9832 48.9648 13.6662 48.7787 13.3152C48.6024 12.9543 48.5142 12.5301 48.5142 12.0426C48.5142 11.555 48.6465 11.1161 48.9109 10.7261C49.1852 10.3262 49.5819 10.0093 50.101 9.77527C50.63 9.53147 51.2666 9.40957 52.011 9.40957C52.6183 9.40957 53.162 9.47296 53.6419 9.59973C54.1317 9.71675 54.6067 9.88741 55.0671 10.1117L54.5528 11.2965C54.2198 11.1015 53.828 10.9406 53.3775 10.8138C52.9367 10.6773 52.4714 10.609 51.9817 10.609C51.3352 10.609 50.8259 10.7358 50.4536 10.9894C50.0814 11.2429 49.8953 11.5696 49.8953 11.9694C49.8953 12.223 49.9492 12.4473 50.0569 12.6423C50.1647 12.8373 50.3753 13.0275 50.6887 13.2128C51.012 13.398 51.4919 13.6077 52.1286 13.8418C52.8926 14.1246 53.495 14.422 53.9358 14.734C54.3863 15.0461 54.7047 15.3874 54.8908 15.758C55.0769 16.1188 55.1699 16.5332 55.1699 17.0013C55.1699 17.6352 55.0083 18.1764 54.6851 18.625C54.3716 19.0736 53.9309 19.4149 53.3628 19.6489C52.8044 19.883 52.1629 20 51.438 20Z" fill="white"/>
<path d="M60.009 20C59.3724 20 58.7945 19.8391 58.2753 19.5173C57.7562 19.1955 57.3399 18.742 57.0265 18.1569C56.7228 17.5621 56.571 16.8648 56.571 16.0652C56.571 15.3045 56.7228 14.6219 57.0265 14.0173C57.3399 13.4127 57.766 12.9348 58.3047 12.5838C58.8532 12.223 59.4801 12.0426 60.1854 12.0426C60.6261 12.0426 61.0228 12.1206 61.3754 12.2766C61.7379 12.4229 62.0513 12.6082 62.3158 12.8324V12.2181H63.5205V17.9814C63.5205 18.352 63.6087 18.5957 63.785 18.7128C63.9711 18.82 64.1719 18.8737 64.3874 18.8737L64.1082 19.8976C63.1679 19.8976 62.5998 19.5173 62.4039 18.7566C62.1786 19.0687 61.8701 19.3564 61.4783 19.6197C61.0963 19.8732 60.6065 20 60.009 20ZM60.3029 18.8298C60.6751 18.8298 61.0277 18.742 61.3608 18.5665C61.6938 18.3812 61.9729 18.152 62.1982 17.879V13.7979C61.9338 13.6126 61.6399 13.4663 61.3167 13.359C61.0032 13.242 60.6702 13.1835 60.3176 13.1835C59.8474 13.1835 59.4311 13.3054 59.0687 13.5492C58.7161 13.7832 58.4369 14.1148 58.2313 14.5439C58.0256 14.9632 57.9227 15.4557 57.9227 16.0213C57.9227 16.5674 58.0256 17.055 58.2313 17.484C58.4369 17.9034 58.721 18.2349 59.0834 18.4787C59.4458 18.7128 59.8523 18.8298 60.3029 18.8298Z" fill="white"/>
<path d="M68.4747 20C68.0241 20 67.6176 19.9171 67.2552 19.7513C66.8928 19.5758 66.6038 19.2979 66.3883 18.9176C66.1826 18.5372 66.0798 18.0448 66.0798 17.4402V9H67.4021V17.3085C67.4021 17.8351 67.5099 18.2252 67.7254 18.4787C67.9506 18.7323 68.2592 18.859 68.651 18.859C68.8371 18.859 69.0183 18.8395 69.1946 18.8005C69.3807 18.7518 69.5374 18.6981 69.6648 18.6396L69.988 19.7074C69.8117 19.7855 69.5913 19.8537 69.3268 19.9122C69.0722 19.9707 68.7881 20 68.4747 20Z" fill="white"/>
<path d="M74.2349 20C73.5101 20 72.8587 19.8342 72.2808 19.5027C71.7029 19.1613 71.2475 18.6933 70.9144 18.0984C70.5912 17.4938 70.4296 16.8014 70.4296 16.0213C70.4296 15.2021 70.5961 14.4951 70.9291 13.9003C71.2621 13.3054 71.7176 12.8471 72.2955 12.5253C72.8734 12.2035 73.5199 12.0426 74.2349 12.0426C74.95 12.0426 75.5915 12.2035 76.1596 12.5253C76.7375 12.8471 77.193 13.3054 77.526 13.9003C77.8689 14.4854 78.0403 15.1826 78.0403 15.992C78.0403 16.8014 77.8738 17.5084 77.5407 18.113C77.2077 18.7079 76.7522 19.1711 76.1743 19.5027C75.6062 19.8342 74.9598 20 74.2349 20ZM74.2349 18.8298C75.0087 18.8298 75.6111 18.5714 76.0421 18.0545C76.4731 17.5279 76.6886 16.8502 76.6886 16.0213C76.6886 15.5142 76.5808 15.051 76.3653 14.6316C76.1498 14.2026 75.856 13.8613 75.4838 13.6077C75.1214 13.3444 74.7051 13.2128 74.2349 13.2128C73.4611 13.2128 72.8587 13.4663 72.4278 13.9734C71.9968 14.4805 71.7813 15.1534 71.7813 15.992C71.7813 16.4991 71.889 16.9721 72.1045 17.4109C72.32 17.84 72.609 18.1862 72.9714 18.4495C73.3436 18.703 73.7648 18.8298 74.2349 18.8298Z" fill="white"/>
<path d="M80.5794 19.8245V12.2181H81.8576V13.4907C82.1319 13.0811 82.4796 12.7398 82.9008 12.4668C83.3318 12.184 83.8411 12.0426 84.4288 12.0426C85.2908 12.0426 85.9323 12.301 86.3535 12.8178C86.7845 13.3347 87 14.0173 87 14.8657V19.8245H85.6777V15.012C85.6777 14.4659 85.5454 14.027 85.281 13.6955C85.0263 13.3639 84.6688 13.1981 84.2084 13.1981C83.7579 13.1981 83.3318 13.359 82.9302 13.6809C82.5286 13.9929 82.1858 14.3635 81.9017 14.7926V19.8245H80.5794Z" fill="white"/>
<path d="M51.438 20C50.723 20 50.0716 19.9074 49.4839 19.7221C48.8962 19.527 48.4016 19.2735 48 18.9614L48.7052 17.7912C49.0579 18.0838 49.4546 18.3227 49.8953 18.508C50.3361 18.6933 50.8503 18.7859 51.438 18.7859C52.1433 18.7859 52.7016 18.6396 53.113 18.3471C53.5244 18.0545 53.7301 17.6596 53.7301 17.1622C53.7301 16.8794 53.6713 16.6308 53.5538 16.4162C53.4362 16.1919 53.206 15.9774 52.8632 15.7726C52.5302 15.5581 52.0355 15.3289 51.3793 15.0851C50.674 14.8121 50.1108 14.539 49.6896 14.266C49.2685 13.9832 48.9648 13.6662 48.7787 13.3152C48.6024 12.9543 48.5142 12.5301 48.5142 12.0426C48.5142 11.555 48.6465 11.1161 48.9109 10.7261C49.1852 10.3262 49.5819 10.0093 50.101 9.77527C50.63 9.53147 51.2666 9.40957 52.011 9.40957C52.6183 9.40957 53.162 9.47296 53.6419 9.59973C54.1317 9.71675 54.6067 9.88741 55.0671 10.1117L54.5528 11.2965C54.2198 11.1015 53.828 10.9406 53.3775 10.8138C52.9367 10.6773 52.4714 10.609 51.9817 10.609C51.3352 10.609 50.8259 10.7358 50.4536 10.9894C50.0814 11.2429 49.8953 11.5696 49.8953 11.9694C49.8953 12.223 49.9492 12.4473 50.0569 12.6423C50.1647 12.8373 50.3753 13.0275 50.6887 13.2128C51.012 13.398 51.4919 13.6077 52.1286 13.8418C52.8926 14.1246 53.495 14.422 53.9358 14.734C54.3863 15.0461 54.7047 15.3874 54.8908 15.758C55.0769 16.1188 55.1699 16.5332 55.1699 17.0013C55.1699 17.6352 55.0083 18.1764 54.6851 18.625C54.3716 19.0736 53.9309 19.4149 53.3628 19.6489C52.8044 19.883 52.1629 20 51.438 20Z" stroke="#BDBDBD" stroke-width="2" mask="url(#path-1-outside-1_0_171)"/>
<path d="M60.009 20C59.3724 20 58.7945 19.8391 58.2753 19.5173C57.7562 19.1955 57.3399 18.742 57.0265 18.1569C56.7228 17.5621 56.571 16.8648 56.571 16.0652C56.571 15.3045 56.7228 14.6219 57.0265 14.0173C57.3399 13.4127 57.766 12.9348 58.3047 12.5838C58.8532 12.223 59.4801 12.0426 60.1854 12.0426C60.6261 12.0426 61.0228 12.1206 61.3754 12.2766C61.7379 12.4229 62.0513 12.6082 62.3158 12.8324V12.2181H63.5205V17.9814C63.5205 18.352 63.6087 18.5957 63.785 18.7128C63.9711 18.82 64.1719 18.8737 64.3874 18.8737L64.1082 19.8976C63.1679 19.8976 62.5998 19.5173 62.4039 18.7566C62.1786 19.0687 61.8701 19.3564 61.4783 19.6197C61.0963 19.8732 60.6065 20 60.009 20ZM60.3029 18.8298C60.6751 18.8298 61.0277 18.742 61.3608 18.5665C61.6938 18.3812 61.9729 18.152 62.1982 17.879V13.7979C61.9338 13.6126 61.6399 13.4663 61.3167 13.359C61.0032 13.242 60.6702 13.1835 60.3176 13.1835C59.8474 13.1835 59.4311 13.3054 59.0687 13.5492C58.7161 13.7832 58.4369 14.1148 58.2313 14.5439C58.0256 14.9632 57.9227 15.4557 57.9227 16.0213C57.9227 16.5674 58.0256 17.055 58.2313 17.484C58.4369 17.9034 58.721 18.2349 59.0834 18.4787C59.4458 18.7128 59.8523 18.8298 60.3029 18.8298Z" stroke="#BDBDBD" stroke-width="2" mask="url(#path-1-outside-1_0_171)"/>
<path d="M68.4747 20C68.0241 20 67.6176 19.9171 67.2552 19.7513C66.8928 19.5758 66.6038 19.2979 66.3883 18.9176C66.1826 18.5372 66.0798 18.0448 66.0798 17.4402V9H67.4021V17.3085C67.4021 17.8351 67.5099 18.2252 67.7254 18.4787C67.9506 18.7323 68.2592 18.859 68.651 18.859C68.8371 18.859 69.0183 18.8395 69.1946 18.8005C69.3807 18.7518 69.5374 18.6981 69.6648 18.6396L69.988 19.7074C69.8117 19.7855 69.5913 19.8537 69.3268 19.9122C69.0722 19.9707 68.7881 20 68.4747 20Z" stroke="#BDBDBD" stroke-width="2" mask="url(#path-1-outside-1_0_171)"/>
<path d="M74.2349 20C73.5101 20 72.8587 19.8342 72.2808 19.5027C71.7029 19.1613 71.2475 18.6933 70.9144 18.0984C70.5912 17.4938 70.4296 16.8014 70.4296 16.0213C70.4296 15.2021 70.5961 14.4951 70.9291 13.9003C71.2621 13.3054 71.7176 12.8471 72.2955 12.5253C72.8734 12.2035 73.5199 12.0426 74.2349 12.0426C74.95 12.0426 75.5915 12.2035 76.1596 12.5253C76.7375 12.8471 77.193 13.3054 77.526 13.9003C77.8689 14.4854 78.0403 15.1826 78.0403 15.992C78.0403 16.8014 77.8738 17.5084 77.5407 18.113C77.2077 18.7079 76.7522 19.1711 76.1743 19.5027C75.6062 19.8342 74.9598 20 74.2349 20ZM74.2349 18.8298C75.0087 18.8298 75.6111 18.5714 76.0421 18.0545C76.4731 17.5279 76.6886 16.8502 76.6886 16.0213C76.6886 15.5142 76.5808 15.051 76.3653 14.6316C76.1498 14.2026 75.856 13.8613 75.4838 13.6077C75.1214 13.3444 74.7051 13.2128 74.2349 13.2128C73.4611 13.2128 72.8587 13.4663 72.4278 13.9734C71.9968 14.4805 71.7813 15.1534 71.7813 15.992C71.7813 16.4991 71.889 16.9721 72.1045 17.4109C72.32 17.84 72.609 18.1862 72.9714 18.4495C73.3436 18.703 73.7648 18.8298 74.2349 18.8298Z" stroke="#BDBDBD" stroke-width="2" mask="url(#path-1-outside-1_0_171)"/>
<path d="M80.5794 19.8245V12.2181H81.8576V13.4907C82.1319 13.0811 82.4796 12.7398 82.9008 12.4668C83.3318 12.184 83.8411 12.0426 84.4288 12.0426C85.2908 12.0426 85.9323 12.301 86.3535 12.8178C86.7845 13.3347 87 14.0173 87 14.8657V19.8245H85.6777V15.012C85.6777 14.4659 85.5454 14.027 85.281 13.6955C85.0263 13.3639 84.6688 13.1981 84.2084 13.1981C83.7579 13.1981 83.3318 13.359 82.9302 13.6809C82.5286 13.9929 82.1858 14.3635 81.9017 14.7926V19.8245H80.5794Z" stroke="#BDBDBD" stroke-width="2" mask="url(#path-1-outside-1_0_171)"/>
<g clip-path="url(#clip0_0_171)">
<path d="M39.375 0.874998C39.375 1.35825 39.7667 1.75 40.25 1.75H41.125C41.6083 1.75 42 1.35825 42 0.874998C42 0.391751 41.6083 0 41.125 0H40.25C39.7667 0 39.375 0.391751 39.375 0.874998Z" fill="white"/>
<path d="M14 28H18.2506L17.0131 26.7625C16.685 26.4344 16.2399 26.25 15.7758 26.25H14C7.2345 26.25 1.75 20.7655 1.75 14C1.75 7.2345 7.2345 1.75001 14 1.75H28C34.7655 1.75 40.25 7.2345 40.25 14C40.25 20.7655 34.7655 26.25 28 26.25H22.7629C22.0667 26.25 21.399 25.9734 20.9067 25.4812L19.457 24.0314C18.6365 23.211 17.5237 22.75 16.3633 22.75H14C9.16748 22.75 5.25 18.8325 5.25 14C5.25 9.16748 9.16748 5.25 14 5.25H28C32.8325 5.25 36.75 9.16748 36.75 14C36.75 18.8325 32.8325 22.75 28 22.75H24.6373C23.941 22.75 23.2734 22.4734 22.7811 21.9812L21.3313 20.5314C20.5108 19.711 19.3981 19.25 18.2377 19.25H14C11.1005 19.25 8.75 16.8995 8.75 14C8.75 11.1005 11.1005 8.75 14 8.75H28C30.8995 8.75 33.25 11.1005 33.25 14C33.25 16.8641 30.9564 19.1926 28.1058 19.249L28.1053 19.25H26.8248C26.1285 19.25 25.4609 18.9734 24.9686 18.4812L23.5188 17.0314C22.8456 16.3582 21.9756 15.927 21.044 15.794L21 15.75H14C13.0335 15.75 12.25 14.9665 12.25 14C12.25 13.0335 13.0335 12.25 14 12.25H28C28.9665 12.25 29.75 13.0335 29.75 14C29.75 14.9665 28.9665 15.75 28 15.75H24.5L25.7375 16.9875C26.0656 17.3156 26.5107 17.5 26.9748 17.5H28C29.933 17.5 31.5 15.933 31.5 14C31.5 12.067 29.933 10.5 28 10.5H14C12.067 10.5 10.5 12.067 10.5 14C10.5 15.933 12.067 17.5 14 17.5H20.4252C21.1215 17.5 21.7891 17.7766 22.2814 18.2688L23.7312 19.7186C24.5517 20.539 25.6644 21 26.8248 21H28.4375V20.9866C32.0997 20.7607 35 17.719 35 14C35 10.134 31.866 7 28 7H14C10.134 7 7 10.134 7 14C7 17.866 10.134 21 14 21H18.2377C18.934 21 19.6016 21.2766 20.0939 21.7688L21.5437 23.2186C22.3642 24.039 23.4769 24.5 24.6373 24.5H28C33.799 24.5 38.5 19.799 38.5 14C38.5 8.20099 33.799 3.5 28 3.5H14C8.20099 3.5 3.5 8.20099 3.5 14C3.5 19.799 8.20099 24.5 14 24.5H16.3633C17.0596 24.5 17.7272 24.7766 18.2195 25.2688L19.6693 26.7186C20.4898 27.539 21.6026 28 22.7629 28H28C35.732 28 42 21.732 42 14C42 6.26801 35.732 -6.75951e-07 28 0L14 2.89285e-06C6.26801 3.5688e-06 -6.75951e-07 6.26802 0 14C6.75952e-07 21.732 6.26802 28 14 28Z" fill="white"/>
</g>
<defs>
<clipPath id="clip0_0_171">
<rect width="42" height="28" fill="white"/>
</clipPath>
</defs>
</svg>
